<?xml version="1.0" encoding="utf-8" standalone="no"?>
<!DOCTYPE svg PUBLIC "-//W3C//DTD SVG 1.1//EN"
  "http://www.w3.org/Graphics/SVG/1.1/DTD/svg11.dtd">
<svg xmlns:xlink="http://www.w3.org/1999/xlink" width="523.176172pt" height="463.914437pt" viewBox="0 0 523.176172 463.914437" xmlns="http://www.w3.org/2000/svg" version="1.1">
 <metadata>
  <rdf:RDF xmlns:dc="http://purl.org/dc/elements/1.1/" xmlns:cc="http://creativecommons.org/ns#" xmlns:rdf="http://www.w3.org/1999/02/22-rdf-syntax-ns#">
   <cc:Work>
    <dc:type rdf:resource="http://purl.org/dc/dcmitype/StillImage"/>
    <dc:date>2025-10-30T15:20:22.443313</dc:date>
    <dc:format>image/svg+xml</dc:format>
    <dc:creator>
     <cc:Agent>
      <dc:title>Matplotlib v3.9.2, https://matplotlib.org/</dc:title>
     </cc:Agent>
    </dc:creator>
   </cc:Work>
  </rdf:RDF>
 </metadata>
 <defs>
  <style type="text/css">*{stroke-linejoin: round; stroke-linecap: butt}</style>
 </defs>
 <g id="figure_1">
  <g id="patch_1">
   <path d="M 0 463.914437 
L 523.176172 463.914437 
L 523.176172 0 
L 0 0 
z
" style="fill: #ffffff"/>
  </g>
  <g id="axes_1">
   <g id="patch_2">
    <path d="M 56.214531 334.992 
L 502.614531 334.992 
L 502.614531 57.792 
L 56.214531 57.792 
z
" style="fill: #ffffff"/>
   </g>
   <g id="matplotlib.axis_1">
    <g id="xtick_1">
     <g id="line2d_1">
      <path d="M 76.50544 334.992 
L 76.50544 57.792 
" clip-path="url(#p1f92faaa78)" style="fill: none; stroke: #b0b0b0; stroke-width: 0.8; stroke-linecap: square"/>
     </g>
     <g id="line2d_2">
      <defs>
       <path id="m26f797c1b4" d="M 0 0 
L 0 -5 
" style="stroke: #000000; stroke-width: 0.75"/>
      </defs>
      <g>
       <use xlink:href="#m26f797c1b4" x="76.50544" y="334.992" style="stroke: #000000; stroke-width: 0.75"/>
      </g>
     </g>
     <g id="line2d_3">
      <defs>
       <path id="m736017b53e" d="M 0 0 
L 0 5 
" style="stroke: #000000; stroke-width: 0.75"/>
      </defs>
      <g>
       <use xlink:href="#m736017b53e" x="76.50544" y="57.792" style="stroke: #000000; stroke-width: 0.75"/>
      </g>
     </g>
     <g id="text_1">
      <!-- −1.0 -->
      <g transform="translate(55.86505 351.409344) scale(0.17 -0.17)">
       <defs>
        <path id="DejaVuSerif-2212" d="M 678 2259 
L 4684 2259 
L 4684 1753 
L 678 1753 
L 678 2259 
z
" transform="scale(0.015625)"/>
        <path id="DejaVuSerif-31" d="M 909 0 
L 909 331 
L 1722 331 
L 1722 4213 
L 781 3603 
L 781 4013 
L 1919 4750 
L 2350 4750 
L 2350 331 
L 3163 331 
L 3163 0 
L 909 0 
z
" transform="scale(0.015625)"/>
        <path id="DejaVuSerif-2e" d="M 603 325 
Q 603 500 722 622 
Q 841 744 1019 744 
Q 1191 744 1312 622 
Q 1434 500 1434 325 
Q 1434 153 1312 31 
Q 1191 -91 1019 -91 
Q 841 -91 722 29 
Q 603 150 603 325 
z
" transform="scale(0.015625)"/>
        <path id="DejaVuSerif-30" d="M 2034 219 
Q 2513 219 2750 744 
Q 2988 1269 2988 2328 
Q 2988 3391 2750 3916 
Q 2513 4441 2034 4441 
Q 1556 4441 1318 3916 
Q 1081 3391 1081 2328 
Q 1081 1269 1318 744 
Q 1556 219 2034 219 
z
M 2034 -91 
Q 1275 -91 848 546 
Q 422 1184 422 2328 
Q 422 3475 848 4112 
Q 1275 4750 2034 4750 
Q 2797 4750 3222 4112 
Q 3647 3475 3647 2328 
Q 3647 1184 3222 546 
Q 2797 -91 2034 -91 
z
" transform="scale(0.015625)"/>
       </defs>
       <use xlink:href="#DejaVuSerif-2212"/>
       <use xlink:href="#DejaVuSerif-31" x="83.789062"/>
       <use xlink:href="#DejaVuSerif-2e" x="147.412109"/>
       <use xlink:href="#DejaVuSerif-30" x="179.199219"/>
      </g>
     </g>
    </g>
    <g id="xtick_2">
     <g id="line2d_4">
      <path d="M 177.959986 334.992 
L 177.959986 57.792 
" clip-path="url(#p1f92faaa78)" style="fill: none; stroke: #b0b0b0; stroke-width: 0.8; stroke-linecap: square"/>
     </g>
     <g id="line2d_5">
      <g>
       <use xlink:href="#m26f797c1b4" x="177.959986" y="334.992" style="stroke: #000000; stroke-width: 0.75"/>
      </g>
     </g>
     <g id="line2d_6">
      <g>
       <use xlink:href="#m736017b53e" x="177.959986" y="57.792" style="stroke: #000000; stroke-width: 0.75"/>
      </g>
     </g>
     <g id="text_2">
      <!-- −0.5 -->
      <g transform="translate(157.319595 351.409344) scale(0.17 -0.17)">
       <defs>
        <path id="DejaVuSerif-35" d="M 3219 4666 
L 3219 4153 
L 1081 4153 
L 1081 2816 
Q 1244 2928 1461 2984 
Q 1678 3041 1947 3041 
Q 2703 3041 3140 2622 
Q 3578 2203 3578 1478 
Q 3578 738 3136 323 
Q 2694 -91 1894 -91 
Q 1572 -91 1234 -12 
Q 897 66 544 225 
L 544 1131 
L 897 1131 
Q 925 688 1179 453 
Q 1434 219 1894 219 
Q 2388 219 2653 544 
Q 2919 869 2919 1478 
Q 2919 2084 2655 2407 
Q 2391 2731 1894 2731 
Q 1613 2731 1398 2631 
Q 1184 2531 1019 2322 
L 750 2322 
L 750 4666 
L 3219 4666 
z
" transform="scale(0.015625)"/>
       </defs>
       <use xlink:href="#DejaVuSerif-2212"/>
       <use xlink:href="#DejaVuSerif-30" x="83.789062"/>
       <use xlink:href="#DejaVuSerif-2e" x="147.412109"/>
       <use xlink:href="#DejaVuSerif-35" x="179.199219"/>
      </g>
     </g>
    </g>
    <g id="xtick_3">
     <g id="line2d_7">
      <path d="M 279.414531 334.992 
L 279.414531 57.792 
" clip-path="url(#p1f92faaa78)" style="fill: none; stroke: #b0b0b0; stroke-width: 0.8; stroke-linecap: square"/>
     </g>
     <g id="line2d_8">
      <g>
       <use xlink:href="#m26f797c1b4" x="279.414531" y="334.992" style="stroke: #000000; stroke-width: 0.75"/>
      </g>
     </g>
     <g id="line2d_9">
      <g>
       <use xlink:href="#m736017b53e" x="279.414531" y="57.792" style="stroke: #000000; stroke-width: 0.75"/>
      </g>
     </g>
     <g id="text_3">
      <!-- 0.0 -->
      <g transform="translate(265.896875 351.409344) scale(0.17 -0.17)">
       <use xlink:href="#DejaVuSerif-30"/>
       <use xlink:href="#DejaVuSerif-2e" x="63.623047"/>
       <use xlink:href="#DejaVuSerif-30" x="95.410156"/>
      </g>
     </g>
    </g>
    <g id="xtick_4">
     <g id="line2d_10">
      <path d="M 380.869077 334.992 
L 380.869077 57.792 
" clip-path="url(#p1f92faaa78)" style="fill: none; stroke: #b0b0b0; stroke-width: 0.8; stroke-linecap: square"/>
     </g>
     <g id="line2d_11">
      <g>
       <use xlink:href="#m26f797c1b4" x="380.869077" y="334.992" style="stroke: #000000; stroke-width: 0.75"/>
      </g>
     </g>
     <g id="line2d_12">
      <g>
       <use xlink:href="#m736017b53e" x="380.869077" y="57.792" style="stroke: #000000; stroke-width: 0.75"/>
      </g>
     </g>
     <g id="text_4">
      <!-- 0.5 -->
      <g transform="translate(367.35142 351.409344) scale(0.17 -0.17)">
       <use xlink:href="#DejaVuSerif-30"/>
       <use xlink:href="#DejaVuSerif-2e" x="63.623047"/>
       <use xlink:href="#DejaVuSerif-35" x="95.410156"/>
      </g>
     </g>
    </g>
    <g id="xtick_5">
     <g id="line2d_13">
      <path d="M 482.323622 334.992 
L 482.323622 57.792 
" clip-path="url(#p1f92faaa78)" style="fill: none; stroke: #b0b0b0; stroke-width: 0.8; stroke-linecap: square"/>
     </g>
     <g id="line2d_14">
      <g>
       <use xlink:href="#m26f797c1b4" x="482.323622" y="334.992" style="stroke: #000000; stroke-width: 0.75"/>
      </g>
     </g>
     <g id="line2d_15">
      <g>
       <use xlink:href="#m736017b53e" x="482.323622" y="57.792" style="stroke: #000000; stroke-width: 0.75"/>
      </g>
     </g>
     <g id="text_5">
      <!-- 1.0 -->
      <g transform="translate(468.805966 351.409344) scale(0.17 -0.17)">
       <use xlink:href="#DejaVuSerif-31"/>
       <use xlink:href="#DejaVuSerif-2e" x="63.623047"/>
       <use xlink:href="#DejaVuSerif-30" x="95.410156"/>
      </g>
     </g>
    </g>
    <g id="xtick_6">
     <g id="line2d_16">
      <defs>
       <path id="m21c1a9aad5" d="M 0 0 
L 0 -2.5 
" style="stroke: #000000; stroke-width: 0.75"/>
      </defs>
      <g>
       <use xlink:href="#m21c1a9aad5" x="56.214531" y="334.992" style="stroke: #000000; stroke-width: 0.75"/>
      </g>
     </g>
     <g id="line2d_17">
      <defs>
       <path id="m335d5afff7" d="M 0 0 
L 0 2.5 
" style="stroke: #000000; stroke-width: 0.75"/>
      </defs>
      <g>
       <use xlink:href="#m335d5afff7" x="56.214531" y="57.792" style="stroke: #000000; stroke-width: 0.75"/>
      </g>
     </g>
    </g>
    <g id="xtick_7">
     <g id="line2d_18">
      <g>
       <use xlink:href="#m21c1a9aad5" x="96.796349" y="334.992" style="stroke: #000000; stroke-width: 0.75"/>
      </g>
     </g>
     <g id="line2d_19">
      <g>
       <use xlink:href="#m335d5afff7" x="96.796349" y="57.792" style="stroke: #000000; stroke-width: 0.75"/>
      </g>
     </g>
    </g>
    <g id="xtick_8">
     <g id="line2d_20">
      <g>
       <use xlink:href="#m21c1a9aad5" x="117.087259" y="334.992" style="stroke: #000000; stroke-width: 0.75"/>
      </g>
     </g>
     <g id="line2d_21">
      <g>
       <use xlink:href="#m335d5afff7" x="117.087259" y="57.792" style="stroke: #000000; stroke-width: 0.75"/>
      </g>
     </g>
    </g>
    <g id="xtick_9">
     <g id="line2d_22">
      <g>
       <use xlink:href="#m21c1a9aad5" x="137.378168" y="334.992" style="stroke: #000000; stroke-width: 0.75"/>
      </g>
     </g>
     <g id="line2d_23">
      <g>
       <use xlink:href="#m335d5afff7" x="137.378168" y="57.792" style="stroke: #000000; stroke-width: 0.75"/>
      </g>
     </g>
    </g>
    <g id="xtick_10">
     <g id="line2d_24">
      <g>
       <use xlink:href="#m21c1a9aad5" x="157.669077" y="334.992" style="stroke: #000000; stroke-width: 0.75"/>
      </g>
     </g>
     <g id="line2d_25">
      <g>
       <use xlink:href="#m335d5afff7" x="157.669077" y="57.792" style="stroke: #000000; stroke-width: 0.75"/>
      </g>
     </g>
    </g>
    <g id="xtick_11">
     <g id="line2d_26">
      <g>
       <use xlink:href="#m21c1a9aad5" x="198.250895" y="334.992" style="stroke: #000000; stroke-width: 0.75"/>
      </g>
     </g>
     <g id="line2d_27">
      <g>
       <use xlink:href="#m335d5afff7" x="198.250895" y="57.792" style="stroke: #000000; stroke-width: 0.75"/>
      </g>
     </g>
    </g>
    <g id="xtick_12">
     <g id="line2d_28">
      <g>
       <use xlink:href="#m21c1a9aad5" x="218.541804" y="334.992" style="stroke: #000000; stroke-width: 0.75"/>
      </g>
     </g>
     <g id="line2d_29">
      <g>
       <use xlink:href="#m335d5afff7" x="218.541804" y="57.792" style="stroke: #000000; stroke-width: 0.75"/>
      </g>
     </g>
    </g>
    <g id="xtick_13">
     <g id="line2d_30">
      <g>
       <use xlink:href="#m21c1a9aad5" x="238.832713" y="334.992" style="stroke: #000000; stroke-width: 0.75"/>
      </g>
     </g>
     <g id="line2d_31">
      <g>
       <use xlink:href="#m335d5afff7" x="238.832713" y="57.792" style="stroke: #000000; stroke-width: 0.75"/>
      </g>
     </g>
    </g>
    <g id="xtick_14">
     <g id="line2d_32">
      <g>
       <use xlink:href="#m21c1a9aad5" x="259.123622" y="334.992" style="stroke: #000000; stroke-width: 0.75"/>
      </g>
     </g>
     <g id="line2d_33">
      <g>
       <use xlink:href="#m335d5afff7" x="259.123622" y="57.792" style="stroke: #000000; stroke-width: 0.75"/>
      </g>
     </g>
    </g>
    <g id="xtick_15">
     <g id="line2d_34">
      <g>
       <use xlink:href="#m21c1a9aad5" x="299.70544" y="334.992" style="stroke: #000000; stroke-width: 0.75"/>
      </g>
     </g>
     <g id="line2d_35">
      <g>
       <use xlink:href="#m335d5afff7" x="299.70544" y="57.792" style="stroke: #000000; stroke-width: 0.75"/>
      </g>
     </g>
    </g>
    <g id="xtick_16">
     <g id="line2d_36">
      <g>
       <use xlink:href="#m21c1a9aad5" x="319.996349" y="334.992" style="stroke: #000000; stroke-width: 0.75"/>
      </g>
     </g>
     <g id="line2d_37">
      <g>
       <use xlink:href="#m335d5afff7" x="319.996349" y="57.792" style="stroke: #000000; stroke-width: 0.75"/>
      </g>
     </g>
    </g>
    <g id="xtick_17">
     <g id="line2d_38">
      <g>
       <use xlink:href="#m21c1a9aad5" x="340.287259" y="334.992" style="stroke: #000000; stroke-width: 0.75"/>
      </g>
     </g>
     <g id="line2d_39">
      <g>
       <use xlink:href="#m335d5afff7" x="340.287259" y="57.792" style="stroke: #000000; stroke-width: 0.75"/>
      </g>
     </g>
    </g>
    <g id="xtick_18">
     <g id="line2d_40">
      <g>
       <use xlink:href="#m21c1a9aad5" x="360.578168" y="334.992" style="stroke: #000000; stroke-width: 0.75"/>
      </g>
     </g>
     <g id="line2d_41">
      <g>
       <use xlink:href="#m335d5afff7" x="360.578168" y="57.792" style="stroke: #000000; stroke-width: 0.75"/>
      </g>
     </g>
    </g>
    <g id="xtick_19">
     <g id="line2d_42">
      <g>
       <use xlink:href="#m21c1a9aad5" x="401.159986" y="334.992" style="stroke: #000000; stroke-width: 0.75"/>
      </g>
     </g>
     <g id="line2d_43">
      <g>
       <use xlink:href="#m335d5afff7" x="401.159986" y="57.792" style="stroke: #000000; stroke-width: 0.75"/>
      </g>
     </g>
    </g>
    <g id="xtick_20">
     <g id="line2d_44">
      <g>
       <use xlink:href="#m21c1a9aad5" x="421.450895" y="334.992" style="stroke: #000000; stroke-width: 0.75"/>
      </g>
     </g>
     <g id="line2d_45">
      <g>
       <use xlink:href="#m335d5afff7" x="421.450895" y="57.792" style="stroke: #000000; stroke-width: 0.75"/>
      </g>
     </g>
    </g>
    <g id="xtick_21">
     <g id="line2d_46">
      <g>
       <use xlink:href="#m21c1a9aad5" x="441.741804" y="334.992" style="stroke: #000000; stroke-width: 0.75"/>
      </g>
     </g>
     <g id="line2d_47">
      <g>
       <use xlink:href="#m335d5afff7" x="441.741804" y="57.792" style="stroke: #000000; stroke-width: 0.75"/>
      </g>
     </g>
    </g>
    <g id="xtick_22">
     <g id="line2d_48">
      <g>
       <use xlink:href="#m21c1a9aad5" x="462.032713" y="334.992" style="stroke: #000000; stroke-width: 0.75"/>
      </g>
     </g>
     <g id="line2d_49">
      <g>
       <use xlink:href="#m335d5afff7" x="462.032713" y="57.792" style="stroke: #000000; stroke-width: 0.75"/>
      </g>
     </g>
    </g>
    <g id="xtick_23">
     <g id="line2d_50">
      <g>
       <use xlink:href="#m21c1a9aad5" x="502.614531" y="334.992" style="stroke: #000000; stroke-width: 0.75"/>
      </g>
     </g>
     <g id="line2d_51">
      <g>
       <use xlink:href="#m335d5afff7" x="502.614531" y="57.792" style="stroke: #000000; stroke-width: 0.75"/>
      </g>
     </g>
    </g>
    <g id="text_6">
     <!-- $x$ -->
     <g transform="translate(274.569531 371.862156) scale(0.17 -0.17)">
      <defs>
       <path id="DejaVuSerif-Italic-78" d="M 409 0 
L 19 0 
L 1484 1594 
L 747 2988 
L 338 2988 
L 400 3322 
L 1244 3322 
L 1934 2028 
L 3125 3322 
L 3516 3322 
L 2078 1759 
L 2838 331 
L 3272 331 
L 3209 0 
L 2338 0 
L 1631 1325 
L 409 0 
z
" transform="scale(0.015625)"/>
      </defs>
      <use xlink:href="#DejaVuSerif-Italic-78" transform="translate(0 0.09375)"/>
     </g>
    </g>
   </g>
   <g id="matplotlib.axis_2">
    <g id="ytick_1">
     <g id="line2d_52">
      <path d="M 56.214531 314.344415 
L 502.614531 314.344415 
" clip-path="url(#p1f92faaa78)" style="fill: none; stroke: #b0b0b0; stroke-width: 0.8; stroke-linecap: square"/>
     </g>
     <g id="line2d_53">
      <defs>
       <path id="m7a913bf5a8" d="M 0 0 
L 5 0 
" style="stroke: #000000; stroke-width: 0.75"/>
      </defs>
      <g>
       <use xlink:href="#m7a913bf5a8" x="56.214531" y="314.344415" style="stroke: #000000; stroke-width: 0.75"/>
      </g>
     </g>
     <g id="line2d_54">
      <defs>
       <path id="m34877cd796" d="M 0 0 
L -5 0 
" style="stroke: #000000; stroke-width: 0.75"/>
      </defs>
      <g>
       <use xlink:href="#m34877cd796" x="502.614531" y="314.344415" style="stroke: #000000; stroke-width: 0.75"/>
      </g>
     </g>
     <g id="text_7">
      <!-- −4 -->
      <g transform="translate(27.652812 320.803087) scale(0.17 -0.17)">
       <defs>
        <path id="DejaVuSerif-34" d="M 2234 1581 
L 2234 4063 
L 641 1581 
L 2234 1581 
z
M 3609 0 
L 1484 0 
L 1484 331 
L 2234 331 
L 2234 1247 
L 197 1247 
L 197 1588 
L 2241 4750 
L 2859 4750 
L 2859 1581 
L 3750 1581 
L 3750 1247 
L 2859 1247 
L 2859 331 
L 3609 331 
L 3609 0 
z
" transform="scale(0.015625)"/>
       </defs>
       <use xlink:href="#DejaVuSerif-2212"/>
       <use xlink:href="#DejaVuSerif-34" x="83.789062"/>
      </g>
     </g>
    </g>
    <g id="ytick_2">
     <g id="line2d_55">
      <path d="M 56.214531 257.096082 
L 502.614531 257.096082 
" clip-path="url(#p1f92faaa78)" style="fill: none; stroke: #b0b0b0; stroke-width: 0.8; stroke-linecap: square"/>
     </g>
     <g id="line2d_56">
      <g>
       <use xlink:href="#m7a913bf5a8" x="56.214531" y="257.096082" style="stroke: #000000; stroke-width: 0.75"/>
      </g>
     </g>
     <g id="line2d_57">
      <g>
       <use xlink:href="#m34877cd796" x="502.614531" y="257.096082" style="stroke: #000000; stroke-width: 0.75"/>
      </g>
     </g>
     <g id="text_8">
      <!-- −2 -->
      <g transform="translate(27.652812 263.554754) scale(0.17 -0.17)">
       <defs>
        <path id="DejaVuSerif-32" d="M 819 3553 
L 469 3553 
L 469 4384 
Q 803 4563 1142 4656 
Q 1481 4750 1806 4750 
Q 2534 4750 2956 4397 
Q 3378 4044 3378 3438 
Q 3378 2753 2422 1800 
Q 2347 1728 2309 1691 
L 1131 513 
L 3078 513 
L 3078 1088 
L 3444 1088 
L 3444 0 
L 434 0 
L 434 341 
L 1850 1753 
Q 2319 2222 2519 2614 
Q 2719 3006 2719 3438 
Q 2719 3909 2473 4175 
Q 2228 4441 1797 4441 
Q 1350 4441 1106 4219 
Q 863 3997 819 3553 
z
" transform="scale(0.015625)"/>
       </defs>
       <use xlink:href="#DejaVuSerif-2212"/>
       <use xlink:href="#DejaVuSerif-32" x="83.789062"/>
      </g>
     </g>
    </g>
    <g id="ytick_3">
     <g id="line2d_58">
      <path d="M 56.214531 199.847748 
L 502.614531 199.847748 
" clip-path="url(#p1f92faaa78)" style="fill: none; stroke: #b0b0b0; stroke-width: 0.8; stroke-linecap: square"/>
     </g>
     <g id="line2d_59">
      <g>
       <use xlink:href="#m7a913bf5a8" x="56.214531" y="199.847748" style="stroke: #000000; stroke-width: 0.75"/>
      </g>
     </g>
     <g id="line2d_60">
      <g>
       <use xlink:href="#m34877cd796" x="502.614531" y="199.847748" style="stroke: #000000; stroke-width: 0.75"/>
      </g>
     </g>
     <g id="text_9">
      <!-- 0 -->
      <g transform="translate(41.898281 206.30642) scale(0.17 -0.17)">
       <use xlink:href="#DejaVuSerif-30"/>
      </g>
     </g>
    </g>
    <g id="ytick_4">
     <g id="line2d_61">
      <path d="M 56.214531 142.599415 
L 502.614531 142.599415 
" clip-path="url(#p1f92faaa78)" style="fill: none; stroke: #b0b0b0; stroke-width: 0.8; stroke-linecap: square"/>
     </g>
     <g id="line2d_62">
      <g>
       <use xlink:href="#m7a913bf5a8" x="56.214531" y="142.599415" style="stroke: #000000; stroke-width: 0.75"/>
      </g>
     </g>
     <g id="line2d_63">
      <g>
       <use xlink:href="#m34877cd796" x="502.614531" y="142.599415" style="stroke: #000000; stroke-width: 0.75"/>
      </g>
     </g>
     <g id="text_10">
      <!-- 2 -->
      <g transform="translate(41.898281 149.058087) scale(0.17 -0.17)">
       <use xlink:href="#DejaVuSerif-32"/>
      </g>
     </g>
    </g>
    <g id="ytick_5">
     <g id="line2d_64">
      <path d="M 56.214531 85.351081 
L 502.614531 85.351081 
" clip-path="url(#p1f92faaa78)" style="fill: none; stroke: #b0b0b0; stroke-width: 0.8; stroke-linecap: square"/>
     </g>
     <g id="line2d_65">
      <g>
       <use xlink:href="#m7a913bf5a8" x="56.214531" y="85.351081" style="stroke: #000000; stroke-width: 0.75"/>
      </g>
     </g>
     <g id="line2d_66">
      <g>
       <use xlink:href="#m34877cd796" x="502.614531" y="85.351081" style="stroke: #000000; stroke-width: 0.75"/>
      </g>
     </g>
     <g id="text_11">
      <!-- 4 -->
      <g transform="translate(41.898281 91.809753) scale(0.17 -0.17)">
       <use xlink:href="#DejaVuSerif-34"/>
      </g>
     </g>
    </g>
    <g id="ytick_6">
     <g id="line2d_67">
      <defs>
       <path id="m6a8786cd37" d="M 0 0 
L 2.5 0 
" style="stroke: #000000; stroke-width: 0.75"/>
      </defs>
      <g>
       <use xlink:href="#m6a8786cd37" x="56.214531" y="328.656499" style="stroke: #000000; stroke-width: 0.75"/>
      </g>
     </g>
     <g id="line2d_68">
      <defs>
       <path id="md0f02616d0" d="M 0 0 
L -2.5 0 
" style="stroke: #000000; stroke-width: 0.75"/>
      </defs>
      <g>
       <use xlink:href="#md0f02616d0" x="502.614531" y="328.656499" style="stroke: #000000; stroke-width: 0.75"/>
      </g>
     </g>
    </g>
    <g id="ytick_7">
     <g id="line2d_69">
      <g>
       <use xlink:href="#m6a8786cd37" x="56.214531" y="300.032332" style="stroke: #000000; stroke-width: 0.75"/>
      </g>
     </g>
     <g id="line2d_70">
      <g>
       <use xlink:href="#md0f02616d0" x="502.614531" y="300.032332" style="stroke: #000000; stroke-width: 0.75"/>
      </g>
     </g>
    </g>
    <g id="ytick_8">
     <g id="line2d_71">
      <g>
       <use xlink:href="#m6a8786cd37" x="56.214531" y="285.720248" style="stroke: #000000; stroke-width: 0.75"/>
      </g>
     </g>
     <g id="line2d_72">
      <g>
       <use xlink:href="#md0f02616d0" x="502.614531" y="285.720248" style="stroke: #000000; stroke-width: 0.75"/>
      </g>
     </g>
    </g>
    <g id="ytick_9">
     <g id="line2d_73">
      <g>
       <use xlink:href="#m6a8786cd37" x="56.214531" y="271.408165" style="stroke: #000000; stroke-width: 0.75"/>
      </g>
     </g>
     <g id="line2d_74">
      <g>
       <use xlink:href="#md0f02616d0" x="502.614531" y="271.408165" style="stroke: #000000; stroke-width: 0.75"/>
      </g>
     </g>
    </g>
    <g id="ytick_10">
     <g id="line2d_75">
      <g>
       <use xlink:href="#m6a8786cd37" x="56.214531" y="242.783998" style="stroke: #000000; stroke-width: 0.75"/>
      </g>
     </g>
     <g id="line2d_76">
      <g>
       <use xlink:href="#md0f02616d0" x="502.614531" y="242.783998" style="stroke: #000000; stroke-width: 0.75"/>
      </g>
     </g>
    </g>
    <g id="ytick_11">
     <g id="line2d_77">
      <g>
       <use xlink:href="#m6a8786cd37" x="56.214531" y="228.471915" style="stroke: #000000; stroke-width: 0.75"/>
      </g>
     </g>
     <g id="line2d_78">
      <g>
       <use xlink:href="#md0f02616d0" x="502.614531" y="228.471915" style="stroke: #000000; stroke-width: 0.75"/>
      </g>
     </g>
    </g>
    <g id="ytick_12">
     <g id="line2d_79">
      <g>
       <use xlink:href="#m6a8786cd37" x="56.214531" y="214.159832" style="stroke: #000000; stroke-width: 0.75"/>
      </g>
     </g>
     <g id="line2d_80">
      <g>
       <use xlink:href="#md0f02616d0" x="502.614531" y="214.159832" style="stroke: #000000; stroke-width: 0.75"/>
      </g>
     </g>
    </g>
    <g id="ytick_13">
     <g id="line2d_81">
      <g>
       <use xlink:href="#m6a8786cd37" x="56.214531" y="185.535665" style="stroke: #000000; stroke-width: 0.75"/>
      </g>
     </g>
     <g id="line2d_82">
      <g>
       <use xlink:href="#md0f02616d0" x="502.614531" y="185.535665" style="stroke: #000000; stroke-width: 0.75"/>
      </g>
     </g>
    </g>
    <g id="ytick_14">
     <g id="line2d_83">
      <g>
       <use xlink:href="#m6a8786cd37" x="56.214531" y="171.223582" style="stroke: #000000; stroke-width: 0.75"/>
      </g>
     </g>
     <g id="line2d_84">
      <g>
       <use xlink:href="#md0f02616d0" x="502.614531" y="171.223582" style="stroke: #000000; stroke-width: 0.75"/>
      </g>
     </g>
    </g>
    <g id="ytick_15">
     <g id="line2d_85">
      <g>
       <use xlink:href="#m6a8786cd37" x="56.214531" y="156.911498" style="stroke: #000000; stroke-width: 0.75"/>
      </g>
     </g>
     <g id="line2d_86">
      <g>
       <use xlink:href="#md0f02616d0" x="502.614531" y="156.911498" style="stroke: #000000; stroke-width: 0.75"/>
      </g>
     </g>
    </g>
    <g id="ytick_16">
     <g id="line2d_87">
      <g>
       <use xlink:href="#m6a8786cd37" x="56.214531" y="128.287331" style="stroke: #000000; stroke-width: 0.75"/>
      </g>
     </g>
     <g id="line2d_88">
      <g>
       <use xlink:href="#md0f02616d0" x="502.614531" y="128.287331" style="stroke: #000000; stroke-width: 0.75"/>
      </g>
     </g>
    </g>
    <g id="ytick_17">
     <g id="line2d_89">
      <g>
       <use xlink:href="#m6a8786cd37" x="56.214531" y="113.975248" style="stroke: #000000; stroke-width: 0.75"/>
      </g>
     </g>
     <g id="line2d_90">
      <g>
       <use xlink:href="#md0f02616d0" x="502.614531" y="113.975248" style="stroke: #000000; stroke-width: 0.75"/>
      </g>
     </g>
    </g>
    <g id="ytick_18">
     <g id="line2d_91">
      <g>
       <use xlink:href="#m6a8786cd37" x="56.214531" y="99.663165" style="stroke: #000000; stroke-width: 0.75"/>
      </g>
     </g>
     <g id="line2d_92">
      <g>
       <use xlink:href="#md0f02616d0" x="502.614531" y="99.663165" style="stroke: #000000; stroke-width: 0.75"/>
      </g>
     </g>
    </g>
    <g id="ytick_19">
     <g id="line2d_93">
      <g>
       <use xlink:href="#m6a8786cd37" x="56.214531" y="71.038998" style="stroke: #000000; stroke-width: 0.75"/>
      </g>
     </g>
     <g id="line2d_94">
      <g>
       <use xlink:href="#md0f02616d0" x="502.614531" y="71.038998" style="stroke: #000000; stroke-width: 0.75"/>
      </g>
     </g>
    </g>
    <g id="text_12">
     <!-- $u(x)$ -->
     <g transform="translate(20.117344 213.307) rotate(-90) scale(0.17 -0.17)">
      <defs>
       <path id="DejaVuSerif-Italic-75" d="M 3097 3322 
L 3672 3322 
L 3091 331 
L 3634 331 
L 3572 0 
L 2453 0 
L 2566 588 
Q 2341 256 2055 82 
Q 1769 -91 1434 -91 
Q 881 -91 681 225 
Q 559 413 559 734 
Q 559 944 613 1209 
L 956 2988 
L 438 2988 
L 503 3322 
L 1600 3322 
L 1225 1388 
Q 1163 1066 1163 853 
Q 1163 663 1213 556 
Q 1316 331 1697 331 
Q 2097 331 2364 625 
Q 2631 919 2738 1478 
L 3097 3322 
z
" transform="scale(0.015625)"/>
       <path id="DejaVuSerif-28" d="M 2041 -997 
Q 1281 -656 893 83 
Q 506 822 506 1931 
Q 506 3044 893 3783 
Q 1281 4522 2041 4863 
L 2041 4556 
Q 1559 4225 1350 3623 
Q 1141 3022 1141 1931 
Q 1141 844 1350 242 
Q 1559 -359 2041 -691 
L 2041 -997 
z
" transform="scale(0.015625)"/>
       <path id="DejaVuSerif-29" d="M 453 -997 
L 453 -691 
Q 934 -359 1145 242 
Q 1356 844 1356 1931 
Q 1356 3022 1145 3623 
Q 934 4225 453 4556 
L 453 4863 
Q 1216 4522 1603 3783 
Q 1991 3044 1991 1931 
Q 1991 822 1603 83 
Q 1216 -656 453 -997 
z
" transform="scale(0.015625)"/>
      </defs>
      <use xlink:href="#DejaVuSerif-Italic-75" transform="translate(0 0.015625)"/>
      <use xlink:href="#DejaVuSerif-28" transform="translate(64.404297 0.015625)"/>
      <use xlink:href="#DejaVuSerif-Italic-78" transform="translate(103.417969 0.015625)"/>
      <use xlink:href="#DejaVuSerif-29" transform="translate(159.814453 0.015625)"/>
     </g>
    </g>
   </g>
   <g id="line2d_95">
    <path d="M 76.50544 215.419899 
L 78.544728 190.355409 
L 80.584015 174.358251 
L 82.623302 171.639038 
L 84.66259 178.353722 
L 86.701877 189.434573 
L 88.741164 201.133708 
L 90.780452 211.335757 
L 92.819739 219.148885 
L 94.859026 224.424358 
L 96.898314 227.395748 
L 98.937601 228.452309 
L 100.976888 228.012731 
L 103.016176 226.463028 
L 105.055463 224.131589 
L 107.094751 221.284059 
L 111.173325 214.819717 
L 117.291187 204.989527 
L 121.369762 199.064928 
L 123.409049 196.368069 
L 125.448337 193.858024 
L 127.487624 191.534642 
L 129.526911 189.393881 
L 131.566199 187.429076 
L 133.605486 185.63188 
L 135.644773 183.992957 
L 137.684061 182.502482 
L 141.762635 179.927183 
L 145.84121 177.828794 
L 149.919785 176.136285 
L 153.998359 174.78667 
L 158.076934 173.725312 
L 162.155509 172.905477 
L 166.234084 172.287531 
L 172.351946 171.667527 
L 178.469808 171.33667 
L 184.58767 171.224963 
L 192.744819 171.325985 
L 202.941256 171.72736 
L 215.17698 172.454573 
L 235.569853 173.943548 
L 286.552037 177.769207 
L 315.10206 179.640324 
L 343.652083 181.278182 
L 374.241393 182.798904 
L 406.86999 184.193199 
L 443.577163 185.53013 
L 482.323622 186.726522 
L 482.323622 186.726522 
" clip-path="url(#p1f92faaa78)" style="fill: none; stroke: #ff0000; stroke-linecap: square"/>
   </g>
   <g id="line2d_96">
    <path d="M 76.50544 215.419899 
L 80.584015 198.124886 
L 84.66259 182.30296 
L 88.741164 167.873882 
L 92.819739 154.760165 
L 96.898314 142.887022 
L 100.976888 132.18233 
L 105.055463 122.576575 
L 109.134038 114.002814 
L 113.212613 106.396627 
L 115.2519 102.936922 
L 117.291187 99.696073 
L 119.330475 96.666719 
L 121.369762 93.841644 
L 123.409049 91.213785 
L 125.448337 88.776221 
L 127.487624 86.522178 
L 129.526911 84.445025 
L 131.566199 82.538275 
L 133.605486 80.79558 
L 135.644773 79.210731 
L 137.684061 77.777659 
L 139.723348 76.490429 
L 141.762635 75.343244 
L 143.801923 74.330438 
L 145.84121 73.44648 
L 149.919785 72.043629 
L 153.998359 71.093027 
L 158.076934 70.555036 
L 162.155509 70.392 
L 166.234084 70.568201 
L 170.312658 71.049813 
L 174.391233 71.804856 
L 178.469808 72.803153 
L 182.548382 74.016284 
L 186.626957 75.417539 
L 192.744819 77.817819 
L 198.862681 80.507687 
L 204.980543 83.417283 
L 213.137693 87.531843 
L 229.451991 96.111876 
L 243.727003 103.518284 
L 253.923439 108.545526 
L 262.080589 112.347897 
L 270.237738 115.930237 
L 278.394888 119.282933 
L 286.552037 122.407518 
L 294.709186 125.31523 
L 304.905623 128.675267 
L 315.10206 131.780071 
L 327.337784 135.260913 
L 372.202105 147.739719 
L 382.398542 150.917296 
L 392.594979 154.323125 
L 402.791416 157.971162 
L 412.987852 161.849715 
L 425.223576 166.747113 
L 451.734312 177.509712 
L 459.891461 180.540222 
L 466.009323 182.605049 
L 472.127185 184.425057 
L 478.245047 185.932379 
L 482.323622 186.726522 
L 482.323622 186.726522 
" clip-path="url(#p1f92faaa78)" style="fill: none; stroke: #000000; stroke-linecap: square"/>
   </g>
   <g id="line2d_97">
    <path d="M 76.50544 215.419899 
L 78.544728 242.083041 
L 80.584015 263.813352 
L 82.623302 281.221541 
L 84.66259 294.861008 
L 86.701877 305.232024 
L 88.741164 312.78567 
L 90.780452 317.927561 
L 92.819739 321.021345 
L 94.859026 322.392 
L 96.898314 322.328931 
L 98.937601 321.088878 
L 100.976888 318.89865 
L 103.016176 315.957676 
L 105.055463 312.440404 
L 107.094751 308.498536 
L 111.173325 299.846483 
L 119.330475 282.057773 
L 123.409049 273.905724 
L 125.448337 270.144513 
L 127.487624 266.61969 
L 129.526911 263.342824 
L 131.566199 260.319902 
L 133.605486 257.552139 
L 135.644773 255.036702 
L 137.684061 252.767383 
L 139.723348 250.735194 
L 141.762635 248.928908 
L 143.801923 247.335549 
L 145.84121 245.940823 
L 147.880497 244.7295 
L 149.919785 243.685761 
L 151.959072 242.793493 
L 153.998359 242.036549 
L 158.076934 240.865186 
L 162.155509 240.049552 
L 166.234084 239.478158 
L 172.351946 238.869492 
L 182.548382 237.917428 
L 188.666244 237.129621 
L 194.784106 236.092718 
L 200.901968 234.804842 
L 207.01983 233.306784 
L 217.216267 230.535493 
L 229.451991 227.226608 
L 237.609141 225.299331 
L 243.727003 224.080813 
L 249.844865 223.078241 
L 255.962727 222.287184 
L 264.119876 221.517428 
L 274.316313 220.866978 
L 292.669899 219.791533 
L 300.827048 219.05295 
L 308.984198 218.038496 
L 317.141347 216.726193 
L 325.298497 215.143045 
L 335.494933 212.892917 
L 355.887807 208.271897 
L 364.044956 206.663291 
L 372.202105 205.286636 
L 380.359255 204.140574 
L 390.555692 202.943537 
L 406.86999 201.056455 
L 415.02714 199.853497 
L 421.145002 198.760574 
L 429.302151 197.040902 
L 439.498588 194.599954 
L 449.695025 192.197667 
L 455.812887 190.978969 
L 461.930749 190.020029 
L 470.087898 189.07318 
L 476.20576 188.279075 
L 478.245047 187.891139 
L 480.284335 187.387847 
L 482.323622 186.726522 
L 482.323622 186.726522 
" clip-path="url(#p1f92faaa78)" style="fill: none; stroke-dasharray: 5,5; stroke-dashoffset: 0; stroke: #000000"/>
   </g>
   <g id="line2d_98">
    <path d="M 76.50544 215.419899 
L 78.544728 170.590201 
L 80.584015 146.646996 
L 82.623302 137.184159 
L 84.66259 137.270494 
L 86.701877 143.178831 
L 88.741164 152.15595 
L 92.819739 172.038294 
L 94.859026 180.709065 
L 96.898314 187.730738 
L 98.937601 192.868275 
L 100.976888 196.086044 
L 103.016176 197.48723 
L 105.055463 197.265737 
L 107.094751 195.668641 
L 109.134038 192.967446 
L 111.173325 189.436661 
L 113.212613 185.338375 
L 121.369762 167.590863 
L 123.409049 163.611854 
L 125.448337 160.018735 
L 127.487624 156.860001 
L 129.526911 154.158929 
L 131.566199 151.917335 
L 133.605486 150.119425 
L 135.644773 148.735575 
L 137.684061 147.725909 
L 139.723348 147.043599 
L 141.762635 146.63782 
L 143.801923 146.456321 
L 145.84121 146.447607 
L 149.919785 146.756656 
L 158.076934 147.607127 
L 162.155509 147.746301 
L 166.234084 147.584177 
L 170.312658 147.13819 
L 176.43052 146.108817 
L 184.58767 144.660259 
L 188.666244 144.158976 
L 192.744819 143.92248 
L 196.823394 143.999361 
L 200.901968 144.403887 
L 204.980543 145.117882 
L 209.059118 146.095758 
L 215.17698 147.909946 
L 227.412704 151.817626 
L 231.491279 152.944156 
L 235.569853 153.902596 
L 239.648428 154.673499 
L 243.727003 155.257428 
L 249.844865 155.828122 
L 258.002014 156.224129 
L 268.198451 156.685244 
L 274.316313 157.211607 
L 280.434175 158.036564 
L 286.552037 159.172966 
L 292.669899 160.566725 
L 313.062772 165.552141 
L 319.180634 166.682716 
L 325.298497 167.527615 
L 331.416359 168.110549 
L 339.573508 168.622215 
L 349.769945 169.236211 
L 355.887807 169.800651 
L 362.005669 170.603031 
L 368.123531 171.649494 
L 376.28068 173.315842 
L 386.477117 175.435996 
L 392.594979 176.495514 
L 398.712841 177.289925 
L 404.830703 177.817735 
L 415.02714 178.36643 
L 421.145002 178.761905 
L 427.262864 179.40123 
L 433.380726 180.350014 
L 441.537875 181.944659 
L 447.655737 183.0873 
L 451.734312 183.671652 
L 455.812887 184.057732 
L 461.930749 184.330903 
L 468.048611 184.630244 
L 472.127185 185.1546 
L 476.20576 186.010773 
L 478.245047 186.46158 
L 480.284335 186.772706 
L 482.323622 186.726522 
L 482.323622 186.726522 
" clip-path="url(#p1f92faaa78)" style="fill: none; stroke-dasharray: 6.4,1.6,1,1.6; stroke-dashoffset: 0; stroke: #000000"/>
   </g>
   <g id="line2d_99">
    <path d="M 76.50544 215.419899 
L 78.544728 183.58757 
L 80.584015 173.341315 
L 82.623302 175.447946 
L 84.66259 183.756998 
L 88.741164 204.800828 
L 90.780452 213.854707 
L 92.819739 220.900546 
L 94.859026 225.795359 
L 96.898314 228.663933 
L 98.937601 229.772579 
L 100.976888 229.445331 
L 103.016176 228.011014 
L 105.055463 225.772303 
L 107.094751 222.989972 
L 111.173325 216.600742 
L 117.291187 206.857995 
L 121.369762 200.994526 
L 125.448337 195.820273 
L 129.526911 191.333323 
L 133.605486 187.488221 
L 137.684061 184.234498 
L 141.762635 181.526789 
L 145.84121 179.321653 
L 149.919785 177.571393 
L 153.998359 176.220321 
L 158.076934 175.205203 
L 162.155509 174.459256 
L 166.234084 173.91797 
L 172.351946 173.369557 
L 180.509095 172.935651 
L 188.666244 172.72794 
L 196.823394 172.752548 
L 204.980543 173.039187 
L 213.137693 173.556556 
L 245.76629 175.950399 
L 266.159164 177.2368 
L 302.866336 179.835249 
L 368.123531 183.094292 
L 390.555692 183.926414 
L 412.987852 184.831021 
L 482.323622 186.726522 
L 482.323622 186.726522 
" clip-path="url(#p1f92faaa78)" style="fill: none; stroke-dasharray: 3,5,1,5; stroke-dashoffset: 0; stroke: #000000"/>
   </g>
   <g id="line2d_100">
    <path d="M 76.50544 215.419899 
L 78.544728 190.428332 
L 80.584015 176.397496 
L 82.623302 173.472829 
L 84.66259 178.739617 
L 86.701877 188.609518 
L 88.741164 199.967024 
L 90.780452 210.588732 
L 92.819739 219.169285 
L 94.859026 225.162925 
L 96.898314 228.564535 
L 98.937601 229.697698 
L 100.976888 229.041368 
L 103.016176 227.105065 
L 105.055463 224.350329 
L 109.134038 217.77798 
L 113.212613 211.152661 
L 117.291187 205.096277 
L 121.369762 199.622991 
L 125.448337 194.614304 
L 129.526911 190.040588 
L 133.605486 185.98091 
L 135.644773 184.180068 
L 137.684061 182.547484 
L 139.723348 181.088856 
L 141.762635 179.803846 
L 143.801923 178.686019 
L 145.84121 177.72347 
L 147.880497 176.89998 
L 151.959072 175.592705 
L 156.037647 174.605772 
L 162.155509 173.444902 
L 168.273371 172.479004 
L 174.391233 171.718236 
L 178.469808 171.381479 
L 182.548382 171.211211 
L 186.626957 171.206957 
L 192.744819 171.448709 
L 217.216267 172.824321 
L 227.412704 173.341339 
L 235.569853 173.980259 
L 258.002014 175.984743 
L 272.277026 176.819428 
L 284.51275 177.655742 
L 306.94491 179.374986 
L 321.219922 180.072199 
L 333.455646 180.734673 
L 355.887807 182.095452 
L 410.948565 184.360583 
L 423.184289 184.832267 
L 435.420013 185.344553 
L 459.891461 186.12001 
L 482.323622 186.726522 
L 482.323622 186.726522 
" clip-path="url(#p1f92faaa78)" style="fill: none; stroke-dasharray: 1,5; stroke-dashoffset: 0; stroke: #000000"/>
   </g>
   <g id="line2d_101">
    <path d="M 76.50544 215.419899 
L 78.544728 190.452606 
L 80.584015 174.390103 
L 82.623302 171.50365 
L 84.66259 178.138059 
L 86.701877 189.325805 
L 88.741164 201.21314 
L 90.780452 211.536613 
L 92.819739 219.338269 
L 94.859026 224.497883 
L 96.898314 227.324519 
L 98.937601 228.277945 
L 100.976888 227.81297 
L 103.016176 226.313009 
L 105.055463 224.077029 
L 107.094751 221.33178 
L 111.173325 214.973355 
L 117.291187 204.996735 
L 121.369762 198.947968 
L 123.409049 196.227109 
L 125.448337 193.724044 
L 127.487624 191.433998 
L 129.526911 189.343503 
L 131.566199 187.434302 
L 135.644773 184.083025 
L 139.723348 181.250437 
L 143.801923 178.86288 
L 147.880497 176.892881 
L 151.959072 175.325383 
L 156.037647 174.12835 
L 160.116222 173.243164 
L 164.194796 172.59474 
L 170.312658 171.914113 
L 176.43052 171.459878 
L 182.548382 171.203559 
L 188.666244 171.166938 
L 194.784106 171.337813 
L 204.980543 171.883408 
L 229.451991 173.417503 
L 284.51275 177.649703 
L 298.787761 178.607482 
L 349.769945 181.567585 
L 382.398542 183.153382 
L 441.537875 185.462142 
L 482.323622 186.726522 
L 482.323622 186.726522 
" clip-path="url(#p1f92faaa78)" style="fill: none; stroke-dasharray: 1,3; stroke-dashoffset: 0; stroke: #000000"/>
   </g>
   <g id="line2d_102">
    <path d="M 76.50544 215.419899 
L 78.544728 190.284588 
L 80.584015 174.338274 
L 82.623302 171.69368 
L 84.66259 178.376622 
L 86.701877 189.413215 
L 88.741164 201.105065 
L 90.780452 211.324221 
L 92.819739 219.154395 
L 94.859026 224.435791 
L 96.898314 227.40378 
L 98.937601 228.453841 
L 100.976888 228.009332 
L 103.016176 226.457734 
L 105.055463 224.126698 
L 107.094751 221.280487 
L 111.173325 214.818237 
L 117.291187 204.98976 
L 121.369762 199.065963 
L 123.409049 196.368882 
L 125.448337 193.858079 
L 127.487624 191.533539 
L 129.526911 189.391505 
L 131.566199 187.425658 
L 133.605486 185.627946 
L 135.644773 183.989191 
L 137.684061 182.499546 
L 141.762635 179.927022 
L 145.84121 177.830779 
L 149.919785 176.138005 
L 153.998359 174.785983 
L 158.076934 173.721998 
L 162.155509 172.901264 
L 166.234084 172.28472 
L 172.351946 171.668562 
L 178.469808 171.338754 
L 184.58767 171.224132 
L 192.744819 171.322066 
L 202.941256 171.727596 
L 215.17698 172.455081 
L 233.530566 173.785787 
L 286.552037 177.769385 
L 315.10206 179.641753 
L 343.652083 181.278443 
L 372.202105 182.703366 
L 402.791416 184.029624 
L 437.459301 185.323211 
L 478.245047 186.60951 
L 482.323622 186.726522 
L 482.323622 186.726522 
" clip-path="url(#p1f92faaa78)" style="fill: none; stroke-dasharray: 1,1; stroke-dashoffset: 0; stroke: #000000"/>
   </g>
   <g id="patch_3">
    <path d="M 56.214531 334.992 
L 56.214531 57.792 
" style="fill: none; stroke: #000000; stroke-width: 0.8; stroke-linejoin: miter; stroke-linecap: square"/>
   </g>
   <g id="patch_4">
    <path d="M 502.614531 334.992 
L 502.614531 57.792 
" style="fill: none; stroke: #000000; stroke-width: 0.8; stroke-linejoin: miter; stroke-linecap: square"/>
   </g>
   <g id="patch_5">
    <path d="M 56.214531 334.992 
L 502.614531 334.992 
" style="fill: none; stroke: #000000; stroke-width: 0.8; stroke-linejoin: miter; stroke-linecap: square"/>
   </g>
   <g id="patch_6">
    <path d="M 56.214531 57.792 
L 502.614531 57.792 
" style="fill: none; stroke: #000000; stroke-width: 0.8; stroke-linejoin: miter; stroke-linecap: square"/>
   </g>
   <g id="text_13">
    <!-- $\dfrac{d^2 u}{dx^2} = $f(x)$ = - \frac{1.50 \cos{\left(\frac{1.00}{x + 1.10} \right)} - \frac{0.68 \sin{\left(\frac{1.00}{x + 1.10} \right)}}{0.91 x + 1.00}}{\left(0.91 x + 1.00\right)^{3.00}}$ -->
    <g transform="translate(99.180531 41.88) scale(0.204 -0.204)">
     <defs>
      <path id="DejaVuSerif-Italic-64" d="M 3841 4863 
L 2897 0 
L 2322 0 
L 2422 519 
Q 2191 206 1902 57 
Q 1613 -91 1228 -91 
Q 616 -91 322 394 
Q 125 716 125 1166 
Q 125 1397 178 1663 
Q 331 2444 812 2928 
Q 1294 3413 1909 3413 
Q 2294 3413 2525 3264 
Q 2756 3116 2866 2803 
L 3200 4531 
L 2656 4531 
L 2722 4863 
L 3841 4863 
z
M 2613 1497 
L 2675 1825 
Q 2722 2069 2722 2266 
Q 2722 2550 2622 2738 
Q 2456 3053 2019 3053 
Q 1575 3053 1279 2703 
Q 984 2353 850 1663 
Q 788 1347 788 1103 
Q 788 813 875 622 
Q 1031 269 1475 269 
Q 1913 269 2203 583 
Q 2494 897 2613 1497 
z
" transform="scale(0.015625)"/>
      <path id="DejaVuSerif-3d" d="M 678 2894 
L 4684 2894 
L 4684 2394 
L 678 2394 
L 678 2894 
z
M 678 1619 
L 4684 1619 
L 4684 1119 
L 678 1119 
L 678 1619 
z
" transform="scale(0.015625)"/>
      <path id="DejaVuSerif-66" d="M 2753 4078 
L 2450 4078 
Q 2447 4313 2317 4434 
Q 2188 4556 1941 4556 
Q 1619 4556 1487 4379 
Q 1356 4203 1356 3750 
L 1356 3322 
L 2284 3322 
L 2284 2988 
L 1356 2988 
L 1356 331 
L 2094 331 
L 2094 0 
L 231 0 
L 231 331 
L 781 331 
L 781 2988 
L 231 2988 
L 231 3322 
L 781 3322 
L 781 3738 
Q 781 4294 1070 4578 
Q 1359 4863 1919 4863 
Q 2128 4863 2337 4825 
Q 2547 4788 2753 4709 
L 2753 4078 
z
" transform="scale(0.015625)"/>
      <path id="DejaVuSerif-78" d="M 1863 2028 
L 2559 2988 
L 2113 2988 
L 2113 3322 
L 3391 3322 
L 3391 2988 
L 2950 2988 
L 2059 1759 
L 3097 331 
L 3531 331 
L 3531 0 
L 1997 0 
L 1997 331 
L 2419 331 
L 1697 1325 
L 972 331 
L 1403 331 
L 1403 0 
L 141 0 
L 141 331 
L 581 331 
L 1497 1594 
L 488 2988 
L 78 2988 
L 78 3322 
L 1563 3322 
L 1563 2988 
L 1166 2988 
L 1863 2028 
z
" transform="scale(0.015625)"/>
      <path id="DejaVuSerif-63" d="M 3291 997 
Q 3169 466 2822 187 
Q 2475 -91 1925 -91 
Q 1200 -91 759 389 
Q 319 869 319 1663 
Q 319 2459 759 2936 
Q 1200 3413 1925 3413 
Q 2241 3413 2553 3339 
Q 2866 3266 3181 3116 
L 3181 2266 
L 2847 2266 
Q 2781 2703 2561 2903 
Q 2341 3103 1931 3103 
Q 1466 3103 1228 2742 
Q 991 2381 991 1663 
Q 991 944 1227 581 
Q 1463 219 1931 219 
Q 2303 219 2525 412 
Q 2747 606 2828 997 
L 3291 997 
z
" transform="scale(0.015625)"/>
      <path id="DejaVuSerif-6f" d="M 1925 219 
Q 2388 219 2623 584 
Q 2859 950 2859 1663 
Q 2859 2375 2623 2739 
Q 2388 3103 1925 3103 
Q 1463 3103 1227 2739 
Q 991 2375 991 1663 
Q 991 950 1228 584 
Q 1466 219 1925 219 
z
M 1925 -91 
Q 1200 -91 759 389 
Q 319 869 319 1663 
Q 319 2456 758 2934 
Q 1197 3413 1925 3413 
Q 2653 3413 3092 2934 
Q 3531 2456 3531 1663 
Q 3531 869 3092 389 
Q 2653 -91 1925 -91 
z
" transform="scale(0.015625)"/>
      <path id="DejaVuSerif-73" d="M 359 184 
L 359 959 
L 691 959 
Q 703 588 923 403 
Q 1144 219 1575 219 
Q 1963 219 2166 364 
Q 2369 509 2369 788 
Q 2369 1006 2220 1140 
Q 2072 1275 1594 1428 
L 1178 1569 
Q 750 1706 558 1912 
Q 366 2119 366 2438 
Q 366 2894 700 3153 
Q 1034 3413 1625 3413 
Q 1888 3413 2178 3344 
Q 2469 3275 2778 3144 
L 2778 2419 
L 2447 2419 
Q 2434 2741 2221 2922 
Q 2009 3103 1644 3103 
Q 1281 3103 1095 2975 
Q 909 2847 909 2591 
Q 909 2381 1050 2254 
Q 1191 2128 1613 1997 
L 2069 1856 
Q 2541 1709 2748 1489 
Q 2956 1269 2956 922 
Q 2956 450 2595 179 
Q 2234 -91 1600 -91 
Q 1278 -91 972 -22 
Q 666 47 359 184 
z
" transform="scale(0.015625)"/>
      <path id="STIXSizeTwoSym-Regular-28" d="M 3219 -1555 
L 3219 -1786 
Q 2144 -774 1517 730 
Q 890 2234 890 4115 
Q 890 6003 1533 7593 
Q 2176 9184 3219 10022 
L 3219 9811 
Q 2490 9062 1994 7606 
Q 1498 6150 1498 4115 
Q 1498 563 3219 -1555 
z
" transform="scale(0.015625)"/>
      <path id="DejaVuSerif-2b" d="M 2931 4013 
L 2931 2259 
L 4684 2259 
L 4684 1753 
L 2931 1753 
L 2931 0 
L 2431 0 
L 2431 1753 
L 678 1753 
L 678 2259 
L 2431 2259 
L 2431 4013 
L 2931 4013 
z
" transform="scale(0.015625)"/>
      <path id="STIXSizeTwoSym-Regular-29" d="M 730 9792 
L 730 10022 
Q 1805 9011 2432 7507 
Q 3059 6003 3059 4115 
Q 3059 2234 2416 643 
Q 1773 -947 730 -1786 
L 730 -1574 
Q 1459 -826 1955 633 
Q 2451 2093 2451 4115 
Q 2451 7674 730 9792 
z
" transform="scale(0.015625)"/>
      <path id="DejaVuSerif-36" d="M 2094 219 
Q 2534 219 2771 542 
Q 3009 866 3009 1472 
Q 3009 2078 2771 2401 
Q 2534 2725 2094 2725 
Q 1647 2725 1412 2412 
Q 1178 2100 1178 1509 
Q 1178 888 1415 553 
Q 1653 219 2094 219 
z
M 1075 2569 
Q 1288 2803 1556 2918 
Q 1825 3034 2163 3034 
Q 2859 3034 3264 2615 
Q 3669 2197 3669 1472 
Q 3669 763 3233 336 
Q 2797 -91 2069 -91 
Q 1278 -91 853 498 
Q 428 1088 428 2181 
Q 428 3406 931 4078 
Q 1434 4750 2350 4750 
Q 2597 4750 2869 4703 
Q 3141 4656 3425 4563 
L 3425 3794 
L 3072 3794 
Q 3034 4109 2831 4275 
Q 2628 4441 2284 4441 
Q 1678 4441 1381 3981 
Q 1084 3522 1075 2569 
z
" transform="scale(0.015625)"/>
      <path id="DejaVuSerif-38" d="M 2981 1275 
Q 2981 1775 2732 2051 
Q 2484 2328 2034 2328 
Q 1584 2328 1336 2051 
Q 1088 1775 1088 1275 
Q 1088 772 1336 495 
Q 1584 219 2034 219 
Q 2484 219 2732 495 
Q 2981 772 2981 1275 
z
M 2853 3541 
Q 2853 3966 2637 4203 
Q 2422 4441 2034 4441 
Q 1650 4441 1433 4203 
Q 1216 3966 1216 3541 
Q 1216 3113 1433 2875 
Q 1650 2638 2034 2638 
Q 2422 2638 2637 2875 
Q 2853 3113 2853 3541 
z
M 2516 2484 
Q 3047 2413 3344 2092 
Q 3641 1772 3641 1275 
Q 3641 619 3225 264 
Q 2809 -91 2034 -91 
Q 1263 -91 845 264 
Q 428 619 428 1275 
Q 428 1772 725 2092 
Q 1022 2413 1556 2484 
Q 1084 2569 832 2842 
Q 581 3116 581 3541 
Q 581 4103 968 4426 
Q 1356 4750 2034 4750 
Q 2713 4750 3100 4426 
Q 3488 4103 3488 3541 
Q 3488 3116 3236 2842 
Q 2984 2569 2516 2484 
z
" transform="scale(0.015625)"/>
      <path id="DejaVuSerif-69" d="M 622 4353 
Q 622 4497 726 4603 
Q 831 4709 978 4709 
Q 1122 4709 1226 4603 
Q 1331 4497 1331 4353 
Q 1331 4206 1228 4103 
Q 1125 4000 978 4000 
Q 831 4000 726 4103 
Q 622 4206 622 4353 
z
M 1356 331 
L 1900 331 
L 1900 0 
L 231 0 
L 231 331 
L 781 331 
L 781 2988 
L 231 2988 
L 231 3322 
L 1356 3322 
L 1356 331 
z
" transform="scale(0.015625)"/>
      <path id="DejaVuSerif-6e" d="M 263 0 
L 263 331 
L 781 331 
L 781 2988 
L 231 2988 
L 231 3322 
L 1356 3322 
L 1356 2731 
Q 1516 3069 1770 3241 
Q 2025 3413 2363 3413 
Q 2913 3413 3172 3097 
Q 3431 2781 3431 2113 
L 3431 331 
L 3944 331 
L 3944 0 
L 2356 0 
L 2356 331 
L 2853 331 
L 2853 1931 
Q 2853 2541 2703 2767 
Q 2553 2994 2175 2994 
Q 1775 2994 1565 2701 
Q 1356 2409 1356 1850 
L 1356 331 
L 1856 331 
L 1856 0 
L 263 0 
z
" transform="scale(0.015625)"/>
      <path id="DejaVuSerif-39" d="M 2994 2091 
Q 2784 1856 2512 1740 
Q 2241 1625 1900 1625 
Q 1206 1625 804 2044 
Q 403 2463 403 3188 
Q 403 3897 839 4323 
Q 1275 4750 2003 4750 
Q 2794 4750 3217 4161 
Q 3641 3572 3641 2478 
Q 3641 1253 3137 581 
Q 2634 -91 1722 -91 
Q 1475 -91 1203 -44 
Q 931 3 647 97 
L 647 872 
L 997 872 
Q 1038 556 1241 387 
Q 1444 219 1784 219 
Q 2391 219 2687 676 
Q 2984 1134 2994 2091 
z
M 1978 4441 
Q 1534 4441 1298 4117 
Q 1063 3794 1063 3188 
Q 1063 2581 1298 2256 
Q 1534 1931 1978 1931 
Q 2422 1931 2658 2245 
Q 2894 2559 2894 3150 
Q 2894 3772 2656 4106 
Q 2419 4441 1978 4441 
z
" transform="scale(0.015625)"/>
      <path id="DejaVuSerif-33" d="M 622 4469 
Q 988 4606 1323 4678 
Q 1659 4750 1953 4750 
Q 2638 4750 3022 4454 
Q 3406 4159 3406 3634 
Q 3406 3213 3140 2930 
Q 2875 2647 2388 2547 
Q 2963 2466 3280 2130 
Q 3597 1794 3597 1259 
Q 3597 606 3158 257 
Q 2719 -91 1894 -91 
Q 1528 -91 1179 -12 
Q 831 66 488 225 
L 488 1131 
L 838 1131 
Q 869 681 1141 450 
Q 1413 219 1906 219 
Q 2384 219 2661 495 
Q 2938 772 2938 1253 
Q 2938 1803 2653 2086 
Q 2369 2369 1819 2369 
L 1522 2369 
L 1522 2688 
L 1678 2688 
Q 2225 2688 2498 2914 
Q 2772 3141 2772 3597 
Q 2772 4006 2547 4223 
Q 2322 4441 1900 4441 
Q 1478 4441 1245 4241 
Q 1013 4041 972 3647 
L 622 3647 
L 622 4469 
z
" transform="scale(0.015625)"/>
     </defs>
     <use xlink:href="#DejaVuSerif-Italic-64" transform="translate(0 45.281)"/>
     <use xlink:href="#DejaVuSerif-32" transform="translate(71.62362 81.615375) scale(0.7)"/>
     <use xlink:href="#DejaVuSerif-Italic-75" transform="translate(118.755065 45.281)"/>
     <use xlink:href="#DejaVuSerif-Italic-64" transform="translate(6 -75.678375)"/>
     <use xlink:href="#DejaVuSerif-Italic-78" transform="translate(70.013672 -75.678375)"/>
     <use xlink:href="#DejaVuSerif-32" transform="translate(130.649167 -39.344) scale(0.7)"/>
     <use xlink:href="#DejaVuSerif-3d" transform="translate(214.624206 0.007563)"/>
     <use xlink:href="#DejaVuSerif-66" transform="translate(317.378112 0.007563)"/>
     <use xlink:href="#DejaVuSerif-28" transform="translate(354.389831 0.007563)"/>
     <use xlink:href="#DejaVuSerif-78" transform="translate(393.403503 0.007563)"/>
     <use xlink:href="#DejaVuSerif-29" transform="translate(449.799987 0.007563)"/>
     <use xlink:href="#DejaVuSerif-3d" transform="translate(507.778503 0.007563)"/>
     <use xlink:href="#DejaVuSerif-2212" transform="translate(629.497253 0.007563)"/>
     <use xlink:href="#DejaVuSerif-31" transform="translate(732.251159 72.101938) scale(0.7)"/>
     <use xlink:href="#DejaVuSerif-2e" transform="translate(776.787292 72.101938) scale(0.7)"/>
     <use xlink:href="#DejaVuSerif-35" transform="translate(799.038268 72.101938) scale(0.7)"/>
     <use xlink:href="#DejaVuSerif-30" transform="translate(843.574401 72.101938) scale(0.7)"/>
     <use xlink:href="#DejaVuSerif-63" transform="translate(888.110534 72.101938) scale(0.7)"/>
     <use xlink:href="#DejaVuSerif-6f" transform="translate(927.314635 72.101938) scale(0.7)"/>
     <use xlink:href="#DejaVuSerif-73" transform="translate(969.45819 72.101938) scale(0.7)"/>
     <use xlink:href="#STIXSizeTwoSym-Regular-28" transform="translate(1016.444088 58.307563) scale(0.52034)"/>
     <use xlink:href="#DejaVuSerif-31" transform="translate(1091.108897 103.49475) scale(0.49)"/>
     <use xlink:href="#DejaVuSerif-2e" transform="translate(1122.28419 103.49475) scale(0.49)"/>
     <use xlink:href="#DejaVuSerif-30" transform="translate(1137.859874 103.49475) scale(0.49)"/>
     <use xlink:href="#DejaVuSerif-30" transform="translate(1169.035167 103.49475) scale(0.49)"/>
     <use xlink:href="#DejaVuSerif-Italic-78" transform="translate(1047.108897 44.555844) scale(0.49)"/>
     <use xlink:href="#DejaVuSerif-2b" transform="translate(1084.035948 44.555844) scale(0.49)"/>
     <use xlink:href="#DejaVuSerif-31" transform="translate(1134.385362 44.555844) scale(0.49)"/>
     <use xlink:href="#DejaVuSerif-2e" transform="translate(1165.560655 44.555844) scale(0.49)"/>
     <use xlink:href="#DejaVuSerif-31" transform="translate(1181.136339 44.555844) scale(0.49)"/>
     <use xlink:href="#DejaVuSerif-30" transform="translate(1212.311631 44.555844) scale(0.49)"/>
     <use xlink:href="#STIXSizeTwoSym-Regular-29" transform="translate(1252.236924 58.307563) scale(0.52034)"/>
     <use xlink:href="#DejaVuSerif-2212" transform="translate(1297.166316 72.101938) scale(0.7)"/>
     <use xlink:href="#DejaVuSerif-30" transform="translate(1369.09405 122.568) scale(0.49)"/>
     <use xlink:href="#DejaVuSerif-2e" transform="translate(1400.269343 122.568) scale(0.49)"/>
     <use xlink:href="#DejaVuSerif-36" transform="translate(1415.845027 122.568) scale(0.49)"/>
     <use xlink:href="#DejaVuSerif-38" transform="translate(1447.02032 122.568) scale(0.49)"/>
     <use xlink:href="#DejaVuSerif-73" transform="translate(1478.195613 122.568) scale(0.49)"/>
     <use xlink:href="#DejaVuSerif-69" transform="translate(1503.341609 122.568) scale(0.49)"/>
     <use xlink:href="#DejaVuSerif-6e" transform="translate(1519.012996 122.568) scale(0.49)"/>
     <use xlink:href="#STIXSizeTwoSym-Regular-28" transform="translate(1558.315234 112.911937) scale(0.364238)"/>
     <use xlink:href="#DejaVuSerif-31" transform="translate(1610.7806 144.542969) scale(0.343)"/>
     <use xlink:href="#DejaVuSerif-2e" transform="translate(1632.603305 144.542969) scale(0.343)"/>
     <use xlink:href="#DejaVuSerif-30" transform="translate(1643.506283 144.542969) scale(0.343)"/>
     <use xlink:href="#DejaVuSerif-30" transform="translate(1665.328989 144.542969) scale(0.343)"/>
     <use xlink:href="#DejaVuSerif-Italic-78" transform="translate(1579.7806 103.285734) scale(0.343)"/>
     <use xlink:href="#DejaVuSerif-2b" transform="translate(1605.629535 103.285734) scale(0.343)"/>
     <use xlink:href="#DejaVuSerif-31" transform="translate(1640.874125 103.285734) scale(0.343)"/>
     <use xlink:href="#DejaVuSerif-2e" transform="translate(1662.69683 103.285734) scale(0.343)"/>
     <use xlink:href="#DejaVuSerif-31" transform="translate(1673.599809 103.285734) scale(0.343)"/>
     <use xlink:href="#DejaVuSerif-30" transform="translate(1695.422514 103.285734) scale(0.343)"/>
     <use xlink:href="#STIXSizeTwoSym-Regular-29" transform="translate(1723.370219 112.911937) scale(0.364238)"/>
     <use xlink:href="#DejaVuSerif-30" transform="translate(1404.09405 44.555844) scale(0.49)"/>
     <use xlink:href="#DejaVuSerif-2e" transform="translate(1435.269343 44.555844) scale(0.49)"/>
     <use xlink:href="#DejaVuSerif-39" transform="translate(1450.845027 44.555844) scale(0.49)"/>
     <use xlink:href="#DejaVuSerif-31" transform="translate(1482.02032 44.555844) scale(0.49)"/>
     <use xlink:href="#DejaVuSerif-Italic-78" transform="translate(1513.195613 44.555844) scale(0.49)"/>
     <use xlink:href="#DejaVuSerif-2b" transform="translate(1550.122664 44.555844) scale(0.49)"/>
     <use xlink:href="#DejaVuSerif-31" transform="translate(1600.472078 44.555844) scale(0.49)"/>
     <use xlink:href="#DejaVuSerif-2e" transform="translate(1631.647371 44.555844) scale(0.49)"/>
     <use xlink:href="#DejaVuSerif-30" transform="translate(1647.223054 44.555844) scale(0.49)"/>
     <use xlink:href="#DejaVuSerif-30" transform="translate(1678.398347 44.555844) scale(0.49)"/>
     <use xlink:href="#DejaVuSerif-28" transform="translate(942.251159 -49.192125) scale(0.7)"/>
     <use xlink:href="#DejaVuSerif-30" transform="translate(969.560729 -49.192125) scale(0.7)"/>
     <use xlink:href="#DejaVuSerif-2e" transform="translate(1014.096862 -49.192125) scale(0.7)"/>
     <use xlink:href="#DejaVuSerif-39" transform="translate(1036.347839 -49.192125) scale(0.7)"/>
     <use xlink:href="#DejaVuSerif-31" transform="translate(1080.883971 -49.192125) scale(0.7)"/>
     <use xlink:href="#DejaVuSerif-Italic-78" transform="translate(1125.420104 -49.192125) scale(0.7)"/>
     <use xlink:href="#DejaVuSerif-2b" transform="translate(1178.173034 -49.192125) scale(0.7)"/>
     <use xlink:href="#DejaVuSerif-31" transform="translate(1250.100768 -49.192125) scale(0.7)"/>
     <use xlink:href="#DejaVuSerif-2e" transform="translate(1294.636901 -49.192125) scale(0.7)"/>
     <use xlink:href="#DejaVuSerif-30" transform="translate(1316.887878 -49.192125) scale(0.7)"/>
     <use xlink:href="#DejaVuSerif-30" transform="translate(1361.42401 -49.192125) scale(0.7)"/>
     <use xlink:href="#DejaVuSerif-29" transform="translate(1405.960143 -49.192125) scale(0.7)"/>
     <use xlink:href="#DejaVuSerif-33" transform="translate(1433.905565 -23.758062) scale(0.49)"/>
     <use xlink:href="#DejaVuSerif-2e" transform="translate(1465.080858 -23.758062) scale(0.49)"/>
     <use xlink:href="#DejaVuSerif-30" transform="translate(1480.656542 -23.758062) scale(0.49)"/>
     <use xlink:href="#DejaVuSerif-30" transform="translate(1511.831835 -23.758062) scale(0.49)"/>
     <path d="M 0 18.859125 
L 0 25.109125 
L 183.159362 25.109125 
L 183.159362 18.859125 
L 0 18.859125 
z
"/>
     <path d="M 1047.108897 85.298031 
L 1047.108897 89.673031 
L 1243.486924 89.673031 
L 1243.486924 85.298031 
L 1047.108897 85.298031 
z
"/>
     <path d="M 1579.7806 131.805266 
L 1579.7806 134.867766 
L 1717.245219 134.867766 
L 1717.245219 131.805266 
L 1579.7806 131.805266 
z
"/>
     <path d="M 1369.09405 85.298031 
L 1369.09405 89.673031 
L 1745.52802 89.673031 
L 1745.52802 85.298031 
L 1369.09405 85.298031 
z
"/>
     <path d="M 732.251159 18.859125 
L 732.251159 25.109125 
L 1754.27802 25.109125 
L 1754.27802 18.859125 
L 732.251159 18.859125 
z
"/>
    </g>
   </g>
   <g id="legend_1">
    <g id="patch_7">
     <path d="M 46.252891 456.714437 
L 512.576172 456.714437 
Q 515.976172 456.714437 515.976172 453.314437 
L 515.976172 380.156 
Q 515.976172 376.756 512.576172 376.756 
L 46.252891 376.756 
Q 42.852891 376.756 42.852891 380.156 
L 42.852891 453.314437 
Q 42.852891 456.714437 46.252891 456.714437 
z
" style="fill: #ffffff; opacity: 0.8; stroke: #cccccc; stroke-linejoin: miter"/>
    </g>
    <g id="line2d_103">
     <path d="M 49.652891 390.523344 
L 66.652891 390.523344 
L 83.652891 390.523344 
" style="fill: none; stroke: #ff0000; stroke-linecap: square"/>
    </g>
    <g id="text_14">
     <!-- Exact Solution -->
     <g transform="translate(97.252891 396.473344) scale(0.17 -0.17)">
      <defs>
       <path id="DejaVuSerif-45" d="M 353 0 
L 353 331 
L 947 331 
L 947 4331 
L 353 4331 
L 353 4666 
L 4109 4666 
L 4109 3628 
L 3725 3628 
L 3725 4281 
L 1581 4281 
L 1581 2719 
L 3109 2719 
L 3109 3303 
L 3494 3303 
L 3494 1753 
L 3109 1753 
L 3109 2338 
L 1581 2338 
L 1581 384 
L 3775 384 
L 3775 1038 
L 4159 1038 
L 4159 0 
L 353 0 
z
" transform="scale(0.015625)"/>
       <path id="DejaVuSerif-61" d="M 2547 1044 
L 2547 1747 
L 1806 1747 
Q 1378 1747 1168 1562 
Q 959 1378 959 997 
Q 959 650 1171 447 
Q 1384 244 1747 244 
Q 2106 244 2326 466 
Q 2547 688 2547 1044 
z
M 3122 2075 
L 3122 331 
L 3634 331 
L 3634 0 
L 2547 0 
L 2547 359 
Q 2356 128 2106 18 
Q 1856 -91 1522 -91 
Q 969 -91 644 203 
Q 319 497 319 997 
Q 319 1513 691 1797 
Q 1063 2081 1741 2081 
L 2547 2081 
L 2547 2309 
Q 2547 2688 2317 2895 
Q 2088 3103 1672 3103 
Q 1328 3103 1125 2947 
Q 922 2791 872 2484 
L 575 2484 
L 575 3156 
Q 875 3284 1158 3348 
Q 1441 3413 1709 3413 
Q 2400 3413 2761 3070 
Q 3122 2728 3122 2075 
z
" transform="scale(0.015625)"/>
       <path id="DejaVuSerif-74" d="M 691 2988 
L 184 2988 
L 184 3322 
L 691 3322 
L 691 4353 
L 1269 4353 
L 1269 3322 
L 2350 3322 
L 2350 2988 
L 1269 2988 
L 1269 878 
Q 1269 456 1350 337 
Q 1431 219 1650 219 
Q 1875 219 1978 351 
Q 2081 484 2088 781 
L 2522 781 
Q 2497 328 2275 118 
Q 2053 -91 1600 -91 
Q 1103 -91 897 129 
Q 691 350 691 878 
L 691 2988 
z
" transform="scale(0.015625)"/>
       <path id="DejaVuSerif-20" transform="scale(0.015625)"/>
       <path id="DejaVuSerif-53" d="M 594 225 
L 594 1288 
L 953 1284 
Q 969 753 1261 498 
Q 1553 244 2150 244 
Q 2706 244 2998 464 
Q 3291 684 3291 1106 
Q 3291 1444 3114 1625 
Q 2938 1806 2369 1978 
L 1753 2163 
Q 1084 2366 811 2669 
Q 538 2972 538 3500 
Q 538 4094 959 4422 
Q 1381 4750 2144 4750 
Q 2469 4750 2856 4679 
Q 3244 4609 3681 4475 
L 3681 3481 
L 3328 3481 
Q 3275 3975 2998 4195 
Q 2722 4416 2156 4416 
Q 1663 4416 1405 4214 
Q 1147 4013 1147 3628 
Q 1147 3294 1340 3103 
Q 1534 2913 2163 2725 
L 2741 2553 
Q 3375 2363 3645 2067 
Q 3916 1772 3916 1275 
Q 3916 597 3481 253 
Q 3047 -91 2188 -91 
Q 1803 -91 1404 -12 
Q 1006 66 594 225 
z
" transform="scale(0.015625)"/>
       <path id="DejaVuSerif-6c" d="M 1313 331 
L 1856 331 
L 1856 0 
L 184 0 
L 184 331 
L 738 331 
L 738 4531 
L 184 4531 
L 184 4863 
L 1313 4863 
L 1313 331 
z
" transform="scale(0.015625)"/>
       <path id="DejaVuSerif-75" d="M 2266 3322 
L 3341 3322 
L 3341 331 
L 3884 331 
L 3884 0 
L 2766 0 
L 2766 588 
Q 2606 256 2353 82 
Q 2100 -91 1766 -91 
Q 1213 -91 952 223 
Q 691 538 691 1209 
L 691 2988 
L 172 2988 
L 172 3322 
L 1269 3322 
L 1269 1388 
Q 1269 781 1417 556 
Q 1566 331 1947 331 
Q 2347 331 2556 625 
Q 2766 919 2766 1478 
L 2766 2988 
L 2266 2988 
L 2266 3322 
z
" transform="scale(0.015625)"/>
      </defs>
      <use xlink:href="#DejaVuSerif-45"/>
      <use xlink:href="#DejaVuSerif-78" x="72.998047"/>
      <use xlink:href="#DejaVuSerif-61" x="129.394531"/>
      <use xlink:href="#DejaVuSerif-63" x="189.013672"/>
      <use xlink:href="#DejaVuSerif-74" x="245.019531"/>
      <use xlink:href="#DejaVuSerif-20" x="285.205078"/>
      <use xlink:href="#DejaVuSerif-53" x="316.992188"/>
      <use xlink:href="#DejaVuSerif-6f" x="385.498047"/>
      <use xlink:href="#DejaVuSerif-6c" x="445.703125"/>
      <use xlink:href="#DejaVuSerif-75" x="477.685547"/>
      <use xlink:href="#DejaVuSerif-74" x="542.089844"/>
      <use xlink:href="#DejaVuSerif-69" x="582.275391"/>
      <use xlink:href="#DejaVuSerif-6f" x="614.257812"/>
      <use xlink:href="#DejaVuSerif-6e" x="674.462891"/>
     </g>
    </g>
    <g id="line2d_104">
     <path d="M 49.652891 415.476156 
L 66.652891 415.476156 
L 83.652891 415.476156 
" style="fill: none; stroke: #000000; stroke-linecap: square"/>
    </g>
    <g id="text_15">
     <!-- N = 5 -->
     <g transform="translate(97.252891 421.426156) scale(0.17 -0.17)">
      <defs>
       <path id="DejaVuSerif-4e" d="M 313 0 
L 313 331 
L 941 331 
L 941 4331 
L 313 4331 
L 313 4666 
L 1509 4666 
L 4306 984 
L 4306 4331 
L 3681 4331 
L 3681 4666 
L 5319 4666 
L 5319 4331 
L 4691 4331 
L 4691 -91 
L 4313 -91 
L 1325 3841 
L 1325 331 
L 1953 331 
L 1953 0 
L 313 0 
z
" transform="scale(0.015625)"/>
      </defs>
      <use xlink:href="#DejaVuSerif-4e"/>
      <use xlink:href="#DejaVuSerif-20" x="87.5"/>
      <use xlink:href="#DejaVuSerif-3d" x="119.287109"/>
      <use xlink:href="#DejaVuSerif-20" x="203.076172"/>
      <use xlink:href="#DejaVuSerif-35" x="234.863281"/>
     </g>
    </g>
    <g id="line2d_105">
     <path d="M 49.652891 440.428969 
L 66.652891 440.428969 
L 83.652891 440.428969 
" style="fill: none; stroke-dasharray: 5,5; stroke-dashoffset: 0; stroke: #000000"/>
    </g>
    <g id="text_16">
     <!-- N = 10 -->
     <g transform="translate(97.252891 446.378969) scale(0.17 -0.17)">
      <use xlink:href="#DejaVuSerif-4e"/>
      <use xlink:href="#DejaVuSerif-20" x="87.5"/>
      <use xlink:href="#DejaVuSerif-3d" x="119.287109"/>
      <use xlink:href="#DejaVuSerif-20" x="203.076172"/>
      <use xlink:href="#DejaVuSerif-31" x="234.863281"/>
      <use xlink:href="#DejaVuSerif-30" x="298.486328"/>
     </g>
    </g>
    <g id="line2d_106">
     <path d="M 256.858984 390.523344 
L 273.858984 390.523344 
L 290.858984 390.523344 
" style="fill: none; stroke-dasharray: 6.4,1.6,1,1.6; stroke-dashoffset: 0; stroke: #000000"/>
    </g>
    <g id="text_17">
     <!-- N = 15 -->
     <g transform="translate(304.458984 396.473344) scale(0.17 -0.17)">
      <use xlink:href="#DejaVuSerif-4e"/>
      <use xlink:href="#DejaVuSerif-20" x="87.5"/>
      <use xlink:href="#DejaVuSerif-3d" x="119.287109"/>
      <use xlink:href="#DejaVuSerif-20" x="203.076172"/>
      <use xlink:href="#DejaVuSerif-31" x="234.863281"/>
      <use xlink:href="#DejaVuSerif-35" x="298.486328"/>
     </g>
    </g>
    <g id="line2d_107">
     <path d="M 256.858984 415.476156 
L 273.858984 415.476156 
L 290.858984 415.476156 
" style="fill: none; stroke-dasharray: 3,5,1,5; stroke-dashoffset: 0; stroke: #000000"/>
    </g>
    <g id="text_18">
     <!-- N = 20 -->
     <g transform="translate(304.458984 421.426156) scale(0.17 -0.17)">
      <use xlink:href="#DejaVuSerif-4e"/>
      <use xlink:href="#DejaVuSerif-20" x="87.5"/>
      <use xlink:href="#DejaVuSerif-3d" x="119.287109"/>
      <use xlink:href="#DejaVuSerif-20" x="203.076172"/>
      <use xlink:href="#DejaVuSerif-32" x="234.863281"/>
      <use xlink:href="#DejaVuSerif-30" x="298.486328"/>
     </g>
    </g>
    <g id="line2d_108">
     <path d="M 256.858984 440.428969 
L 273.858984 440.428969 
L 290.858984 440.428969 
" style="fill: none; stroke-dasharray: 1,5; stroke-dashoffset: 0; stroke: #000000"/>
    </g>
    <g id="text_19">
     <!-- N = 25 -->
     <g transform="translate(304.458984 446.378969) scale(0.17 -0.17)">
      <use xlink:href="#DejaVuSerif-4e"/>
      <use xlink:href="#DejaVuSerif-20" x="87.5"/>
      <use xlink:href="#DejaVuSerif-3d" x="119.287109"/>
      <use xlink:href="#DejaVuSerif-20" x="203.076172"/>
      <use xlink:href="#DejaVuSerif-32" x="234.863281"/>
      <use xlink:href="#DejaVuSerif-35" x="298.486328"/>
     </g>
    </g>
    <g id="line2d_109">
     <path d="M 400.017578 390.523344 
L 417.017578 390.523344 
L 434.017578 390.523344 
" style="fill: none; stroke-dasharray: 1,3; stroke-dashoffset: 0; stroke: #000000"/>
    </g>
    <g id="text_20">
     <!-- N = 30 -->
     <g transform="translate(447.617578 396.473344) scale(0.17 -0.17)">
      <use xlink:href="#DejaVuSerif-4e"/>
      <use xlink:href="#DejaVuSerif-20" x="87.5"/>
      <use xlink:href="#DejaVuSerif-3d" x="119.287109"/>
      <use xlink:href="#DejaVuSerif-20" x="203.076172"/>
      <use xlink:href="#DejaVuSerif-33" x="234.863281"/>
      <use xlink:href="#DejaVuSerif-30" x="298.486328"/>
     </g>
    </g>
    <g id="line2d_110">
     <path d="M 400.017578 415.476156 
L 417.017578 415.476156 
L 434.017578 415.476156 
" style="fill: none; stroke-dasharray: 1,1; stroke-dashoffset: 0; stroke: #000000"/>
    </g>
    <g id="text_21">
     <!-- N = 35 -->
     <g transform="translate(447.617578 421.426156) scale(0.17 -0.17)">
      <use xlink:href="#DejaVuSerif-4e"/>
      <use xlink:href="#DejaVuSerif-20" x="87.5"/>
      <use xlink:href="#DejaVuSerif-3d" x="119.287109"/>
      <use xlink:href="#DejaVuSerif-20" x="203.076172"/>
      <use xlink:href="#DejaVuSerif-33" x="234.863281"/>
      <use xlink:href="#DejaVuSerif-35" x="298.486328"/>
     </g>
    </g>
   </g>
  </g>
 </g>
 <defs>
  <clipPath id="p1f92faaa78">
   <rect x="56.214531" y="57.792" width="446.4" height="277.2"/>
  </clipPath>
 </defs>
</svg>
